<?xml version="1.0" encoding="UTF-8" standalone="no"?>
<!DOCTYPE svg PUBLIC "-//W3C//DTD SVG 1.1//EN"
 "http://www.w3.org/Graphics/SVG/1.1/DTD/svg11.dtd">
<!-- Generated by graphviz version 2.43.0 (0)
 -->
<!-- Title: %3 Pages: 1 -->
<svg width="649pt" height="607pt"
 viewBox="0.00 0.00 648.80 606.74" xmlns="http://www.w3.org/2000/svg" xmlns:xlink="http://www.w3.org/1999/xlink">
<g id="graph0" class="graph" transform="scale(1 1) rotate(0) translate(4 602.74)">
<title>%3</title>
<polygon fill="white" stroke="transparent" points="-4,4 -4,-602.74 644.8,-602.74 644.8,4 -4,4"/>
<text text-anchor="middle" x="320.4" y="-583.54" font-family="Times,serif" font-size="14.00">Communication schema</text>
<!-- front -->
<g id="node1" class="node">
<title>front</title>
<ellipse fill="none" stroke="black" cx="280.8" cy="-453" rx="29.8" ry="18"/>
<text text-anchor="middle" x="280.8" y="-449.3" font-family="Times,serif" font-size="14.00">Front</text>
</g>
<!-- updater -->
<g id="node3" class="node">
<title>updater</title>
<ellipse fill="none" stroke="black" cx="280.8" cy="-366" rx="38.99" ry="18"/>
<text text-anchor="middle" x="280.8" y="-362.3" font-family="Times,serif" font-size="14.00">Updater</text>
</g>
<!-- front&#45;&gt;updater -->
<g id="edge8" class="edge">
<title>front&#45;&gt;updater</title>
<path fill="none" stroke="black" d="M280.8,-434.8C280.8,-423.16 280.8,-407.55 280.8,-394.24"/>
<polygon fill="black" stroke="black" points="284.3,-394.18 280.8,-384.18 277.3,-394.18 284.3,-394.18"/>
<text text-anchor="middle" x="336.3" y="-405.8" font-family="Times,serif" font-size="14.00"> Fetch config values</text>
</g>
<!-- database -->
<g id="node6" class="node">
<title>database</title>
<ellipse fill="none" stroke="black" cx="53.8" cy="-279" rx="42.79" ry="18"/>
<text text-anchor="middle" x="53.8" y="-275.3" font-family="Times,serif" font-size="14.00">Database</text>
</g>
<!-- front&#45;&gt;database -->
<g id="edge7" class="edge">
<title>front&#45;&gt;database</title>
<path fill="none" stroke="black" d="M250.79,-452.41C202.65,-451.27 108.89,-441.31 62.8,-384 45.64,-362.67 45.6,-330.29 48.45,-307.34"/>
<polygon fill="black" stroke="black" points="51.94,-307.63 49.96,-297.22 45.02,-306.6 51.94,-307.63"/>
<text text-anchor="middle" x="147.8" y="-362.3" font-family="Times,serif" font-size="14.00"> Initialize config default values</text>
</g>
<!-- worker -->
<g id="node2" class="node">
<title>worker</title>
<ellipse fill="none" stroke="black" cx="122.8" cy="-18" rx="37.89" ry="18"/>
<text text-anchor="middle" x="122.8" y="-14.3" font-family="Times,serif" font-size="14.00">Worker</text>
</g>
<!-- messageBroker -->
<g id="node5" class="node">
<title>messageBroker</title>
<ellipse fill="none" stroke="black" cx="122.8" cy="-105" rx="67.69" ry="18"/>
<text text-anchor="middle" x="122.8" y="-101.3" font-family="Times,serif" font-size="14.00">Message broker</text>
</g>
<!-- worker&#45;&gt;messageBroker -->
<g id="edge4" class="edge">
<title>worker&#45;&gt;messageBroker</title>
<path fill="none" stroke="black" d="M150.54,-30.43C167.9,-39.42 185.46,-53.06 176.8,-69 173.86,-74.41 169.68,-79.11 164.94,-83.16"/>
<polygon fill="black" stroke="black" points="162.5,-80.61 156.54,-89.36 166.66,-86.24 162.5,-80.61"/>
<text text-anchor="middle" x="263.8" y="-57.8" font-family="Times,serif" font-size="14.00"> Put on queue checked address</text>
</g>
<!-- updater&#45;&gt;database -->
<g id="edge6" class="edge">
<title>updater&#45;&gt;database</title>
<path fill="none" stroke="black" d="M250.78,-354.36C243.34,-352 235.34,-349.7 227.8,-348 169.18,-334.77 146.1,-359.59 93.8,-330 83.53,-324.19 74.9,-314.61 68.32,-305.38"/>
<polygon fill="black" stroke="black" points="71.07,-303.2 62.65,-296.77 65.23,-307.05 71.07,-303.2"/>
<text text-anchor="middle" x="150.3" y="-318.8" font-family="Times,serif" font-size="14.00"> Update address info</text>
</g>
<!-- mailSend -->
<g id="node8" class="node">
<title>mailSend</title>
<ellipse fill="none" stroke="black" cx="346.8" cy="-279" rx="73.39" ry="18"/>
<text text-anchor="middle" x="346.8" y="-275.3" font-family="Times,serif" font-size="14.00">Mail send service</text>
</g>
<!-- updater&#45;&gt;mailSend -->
<g id="edge10" class="edge">
<title>updater&#45;&gt;mailSend</title>
<path fill="none" stroke="black" d="M293.52,-348.61C303.08,-336.31 316.33,-319.23 327.23,-305.2"/>
<polygon fill="black" stroke="black" points="330.29,-306.97 333.66,-296.92 324.76,-302.67 330.29,-306.97"/>
<text text-anchor="middle" x="405.3" y="-318.8" font-family="Times,serif" font-size="14.00"> Request sending mail to admin</text>
</g>
<!-- server -->
<g id="node4" class="node">
<title>server</title>
<ellipse fill="none" stroke="black" cx="33.8" cy="-192" rx="33.6" ry="18"/>
<text text-anchor="middle" x="33.8" y="-188.3" font-family="Times,serif" font-size="14.00">Server</text>
</g>
<!-- server&#45;&gt;messageBroker -->
<g id="edge3" class="edge">
<title>server&#45;&gt;messageBroker</title>
<path fill="none" stroke="black" d="M25.47,-174.32C21.54,-163.89 19.03,-150.64 25.8,-141 33.1,-130.6 43.82,-123.27 55.49,-118.12"/>
<polygon fill="black" stroke="black" points="56.95,-121.31 65.01,-114.43 54.43,-114.78 56.95,-121.31"/>
<text text-anchor="middle" x="116.3" y="-144.8" font-family="Times,serif" font-size="14.00"> Put on queue addresses to check</text>
</g>
<!-- messageBroker&#45;&gt;worker -->
<g id="edge2" class="edge">
<title>messageBroker&#45;&gt;worker</title>
<path fill="none" stroke="black" d="M76.5,-91.67C65.59,-86.49 55.26,-79.21 48.8,-69 37.76,-51.58 58.17,-38.76 80.32,-30.47"/>
<polygon fill="black" stroke="black" points="81.52,-33.76 89.84,-27.19 79.24,-27.14 81.52,-33.76"/>
<text text-anchor="middle" x="112.8" y="-57.8" font-family="Times,serif" font-size="14.00"> Fetch address to check</text>
</g>
<!-- messageBroker&#45;&gt;updater -->
<g id="edge5" class="edge">
<title>messageBroker&#45;&gt;updater</title>
<path fill="none" stroke="black" d="M171.85,-117.51C184.84,-122.73 197.75,-130.24 206.8,-141 236.7,-176.58 215.67,-198.73 229.8,-243 240.65,-277.02 257.15,-314.75 268.42,-339.11"/>
<polygon fill="black" stroke="black" points="265.35,-340.8 272.75,-348.38 271.69,-337.83 265.35,-340.8"/>
<text text-anchor="middle" x="293.3" y="-231.8" font-family="Times,serif" font-size="14.00"> Fetch checked address</text>
</g>
<!-- database&#45;&gt;server -->
<g id="edge1" class="edge">
<title>database&#45;&gt;server</title>
<path fill="none" stroke="black" d="M49.75,-260.8C46.99,-249.09 43.29,-233.34 40.14,-219.97"/>
<polygon fill="black" stroke="black" points="43.47,-218.82 37.77,-209.89 36.65,-220.42 43.47,-218.82"/>
<text text-anchor="middle" x="90.8" y="-231.8" font-family="Times,serif" font-size="14.00"> Fetch addresses</text>
</g>
<!-- client -->
<g id="node7" class="node">
<title>client</title>
<ellipse fill="none" stroke="black" cx="280.8" cy="-548.87" rx="45.01" ry="26.74"/>
<text text-anchor="middle" x="280.8" y="-552.67" font-family="Times,serif" font-size="14.00">Client</text>
<text text-anchor="middle" x="280.8" y="-537.67" font-family="Times,serif" font-size="14.00">E.g. curl</text>
</g>
<!-- client&#45;&gt;front -->
<g id="edge9" class="edge">
<title>client&#45;&gt;front</title>
<path fill="none" stroke="black" d="M280.8,-521.97C280.8,-509.34 280.8,-494.14 280.8,-481.32"/>
<polygon fill="black" stroke="black" points="284.3,-481.22 280.8,-471.22 277.3,-481.22 284.3,-481.22"/>
<text text-anchor="middle" x="329.3" y="-492.8" font-family="Times,serif" font-size="14.00"> Add new address</text>
</g>
<!-- admin -->
<g id="node9" class="node">
<title>admin</title>
<ellipse fill="none" stroke="black" cx="445.8" cy="-192" rx="36" ry="18"/>
<text text-anchor="middle" x="445.8" y="-188.3" font-family="Times,serif" font-size="14.00">Admin</text>
</g>
<!-- mailSend&#45;&gt;admin -->
<g id="edge12" class="edge">
<title>mailSend&#45;&gt;admin</title>
<path fill="none" stroke="black" d="M352.09,-260.95C356.09,-250.37 362.5,-237.09 371.8,-228 381.42,-218.59 394.04,-211.35 406.14,-205.97"/>
<polygon fill="black" stroke="black" points="407.74,-209.09 415.65,-202.04 405.07,-202.62 407.74,-209.09"/>
<text text-anchor="middle" x="439.3" y="-231.8" font-family="Times,serif" font-size="14.00"> Send an email to admin</text>
</g>
<!-- admin&#45;&gt;front -->
<g id="edge11" class="edge">
<title>admin&#45;&gt;front</title>
<path fill="none" stroke="black" d="M475.16,-202.39C487.19,-207.84 499.88,-216.06 506.8,-228 529.63,-267.42 518.12,-289.75 496.8,-330 469.07,-382.36 447.7,-388.43 395.8,-417 371.75,-430.24 342.05,-439.11 318.86,-444.61"/>
<polygon fill="black" stroke="black" points="318.01,-441.22 309.03,-446.84 319.56,-448.04 318.01,-441.22"/>
<text text-anchor="middle" x="572.3" y="-318.8" font-family="Times,serif" font-size="14.00"> Click a link to front API</text>
</g>
</g>
</svg>
